# xmcd CD database file
#
# Track frame offsets:
#	150
#	13860
#	25340
#	39412
#	54735
#	68757
#	86797
#	107630
#	208700
#	223705
#	260927
#	282577
#	295345
#	311795
#	324460
#
# Disc length: 4518 seconds
#
# Revision: 0
# Processed by: cddbd v1.5.2PL0 Copyright (c) Steve Scherf et al.
# Submitted via: CDex 1.91
#
DISCID=f111a40f
DTITLE=Various Artist - Bilboard Hit Jazz
DYEAR=1998
DGENRE=Jazz
TTITLE0=Bessie Smith - Nobody Knows When You're Down And Out
TTITLE1=Sarah Vaughan - What A Difference A Day Makes
TTITLE2=Nina Simone - Central Park Blues
TTITLE3=Jimmy Witherspoon - Corrina
TTITLE4=Ella Fitzgerald - Bel Mir Bist Du Schoen
TTITLE5=Claude Williamson Trio - Stella By Starlight
TTITLE6=Count Bessie - Night In Tunisia
TTITLE7=John Coltrane - Blue Valse
TTITLE8=Lionel Hampton - On The Sunny Side Of The Street
TTITLE9=Paul Chambers - There Is No Greater Love
TTITLE10=Lester Young - Tea For Two
TTITLE11=Dizzy Gillespie - All The Things You Are
TTITLE12=S. Grappelli and J. Lemit - My One And Only Love
TTITLE13=Billie Holiday - The Very Thought Of You
TTITLE14=Billie Holiday - Nice Work If You Can Get It
EXTD=YEAR: 1998
EXTT0=
EXTT1=
EXTT2=
EXTT3=
EXTT4=
EXTT5=
EXTT6=
EXTT7=
EXTT8=
EXTT9=
EXTT10=
EXTT11=
EXTT12=
EXTT13=
EXTT14=
PLAYORDER=
